<svg width="63" height="58" viewBox="0 0 63 58" fill="none" xmlns="http://www.w3.org/2000/svg">
<path d="M55.4873 56.439C58.2204 56.439 60.436 54.3342 60.436 51.7378C60.436 49.1414 58.2204 47.0366 55.4873 47.0366C52.7542 47.0366 50.5386 49.1414 50.5386 51.7378C50.5386 54.3342 52.7542 56.439 55.4873 56.439Z" stroke="#17A7E0" stroke-miterlimit="10" stroke-linejoin="round"/>
<path d="M7.51268 56.439C10.2458 56.439 12.4614 54.3342 12.4614 51.7378C12.4614 49.1414 10.2458 47.0366 7.51268 47.0366C4.77958 47.0366 2.56396 49.1414 2.56396 51.7378C2.56396 54.3342 4.77958 56.439 7.51268 56.439Z" stroke="#17A7E0" stroke-miterlimit="10" stroke-linejoin="round"/>
<path d="M31.5127 56.439C34.2458 56.439 36.4614 54.3342 36.4614 51.7378C36.4614 49.1414 34.2458 47.0366 31.5127 47.0366C28.7796 47.0366 26.564 49.1414 26.564 51.7378C26.564 54.3342 28.7796 56.439 31.5127 56.439Z" stroke="#17A7E0" stroke-miterlimit="10" stroke-linejoin="round"/>
<path d="M31.5127 34.1265V47.5237" stroke="#17A7E0" stroke-miterlimit="10" stroke-linejoin="round"/>
<path d="M55.4873 34.1265V47.5237" stroke="#17A7E0" stroke-miterlimit="10" stroke-linejoin="round"/>
<path d="M31.5127 33.6634C34.2458 33.6634 36.4614 31.5586 36.4614 28.9622C36.4614 26.3658 34.2458 24.261 31.5127 24.261C28.7796 24.261 26.564 26.3658 26.564 28.9622C26.564 31.5586 28.7796 33.6634 31.5127 33.6634Z" stroke="#17A7E0" stroke-miterlimit="10" stroke-linejoin="round"/>
<path d="M55.4873 33.6634C58.2204 33.6634 60.436 31.5586 60.436 28.9622C60.436 26.3658 58.2204 24.261 55.4873 24.261C52.7542 24.261 50.5386 26.3658 50.5386 28.9622C50.5386 31.5586 52.7542 33.6634 55.4873 33.6634Z" stroke="#17A7E0" stroke-miterlimit="10" stroke-linejoin="round"/>
<path d="M7.51268 33.6634C10.2458 33.6634 12.4614 31.5586 12.4614 28.9622C12.4614 26.3658 10.2458 24.261 7.51268 24.261C4.77958 24.261 2.56396 26.3658 2.56396 28.9622C2.56396 31.5586 4.77958 33.6634 7.51268 33.6634Z" stroke="#17A7E0" stroke-miterlimit="10" stroke-linejoin="round"/>
<path d="M11 32.2751L28.5385 48.9364" stroke="#17A7E0" stroke-miterlimit="10" stroke-linejoin="round"/>
<path d="M55.4873 10.8883C58.2204 10.8883 60.436 8.78346 60.436 6.18705C60.436 3.59064 58.2204 1.48584 55.4873 1.48584C52.7542 1.48584 50.5386 3.59064 50.5386 6.18705C50.5386 8.78346 52.7542 10.8883 55.4873 10.8883Z" stroke="#17A7E0" stroke-miterlimit="10" stroke-linecap="round" stroke-linejoin="round"/>
<path d="M7.51268 10.8883C10.2458 10.8883 12.4614 8.78346 12.4614 6.18705C12.4614 3.59064 10.2458 1.48584 7.51268 1.48584C4.77958 1.48584 2.56396 3.59064 2.56396 6.18705C2.56396 8.78346 4.77958 10.8883 7.51268 10.8883Z" stroke="#17A7E0" stroke-miterlimit="10" stroke-linecap="round" stroke-linejoin="round"/>
<path d="M7.5127 10.8638V24.261" stroke="#17A7E0" stroke-miterlimit="10" stroke-linejoin="round"/>
<path d="M31.5127 10.8883C34.2458 10.8883 36.4614 8.78346 36.4614 6.18705C36.4614 3.59064 34.2458 1.48584 31.5127 1.48584C28.7796 1.48584 26.564 3.59064 26.564 6.18705C26.564 8.78346 28.7796 10.8883 31.5127 10.8883Z" stroke="#17A7E0" stroke-miterlimit="10" stroke-linecap="round" stroke-linejoin="round"/>
<path d="M33.7949 9.20776L51.5898 26.1126" stroke="#17A7E0" stroke-miterlimit="10" stroke-linejoin="round"/>
</svg>
