<svg width="74" height="74" viewBox="0 0 74 74" fill="none" xmlns="http://www.w3.org/2000/svg">
<path d="M28.0351 53.0701C31.9204 53.0701 35.0701 49.9204 35.0701 46.0351C35.0701 42.1497 31.9204 39 28.0351 39C24.1497 39 21 42.1497 21 46.0351C21 49.9204 24.1497 53.0701 28.0351 53.0701Z" stroke="#17A7E0" stroke-miterlimit="10" stroke-linecap="round" stroke-linejoin="round"/>
<path d="M28.1919 63.3838C37.6868 63.3838 45.3838 55.6868 45.3838 46.1919C45.3838 36.6971 37.6868 29 28.1919 29C18.6971 29 11 36.6971 11 46.1919C11 55.6868 18.6971 63.3838 28.1919 63.3838Z" stroke="#17A7E0" stroke-miterlimit="10" stroke-linecap="round" stroke-linejoin="round"/>
<path d="M27.8978 71.7956C42.2008 71.7956 53.7956 60.2008 53.7956 45.8978C53.7956 31.5948 42.2008 20 27.8978 20C13.5948 20 2 31.5948 2 45.8978C2 60.2008 13.5948 71.7956 27.8978 71.7956Z" stroke="#17A7E0" stroke-miterlimit="10" stroke-linecap="round" stroke-linejoin="round"/>
<path d="M50.7403 23.2598L28.0962 45.9478" stroke="#17A7E0" stroke-miterlimit="10" stroke-linecap="round" stroke-linejoin="round"/>
<path d="M50.8721 12.7511L61.4247 2.19849L61.3368 7.47478L61.2928 12.7511L66.5691 12.6631L71.8014 12.6192L61.2928 23.1278L56.0165 23.2157L50.7402 23.2597L50.7842 18.0274L50.8721 12.7511Z" stroke="#17A7E0" stroke-miterlimit="10" stroke-linecap="round" stroke-linejoin="round"/>
</svg>
