<svg width="145" height="38" viewBox="0 0 145 38" fill="none" xmlns="http://www.w3.org/2000/svg">
<path d="M30.6225 1.06709C29.3375 0.751247 24.9899 0 19.4589 0C13.9256 0 9.57807 0.751247 8.29298 1.06709C7.00558 1.38293 1.6757 2.30112 0.568582 9.77974C0.568582 9.77974 0 12.9923 0 19C0 25.0077 0.568582 28.2203 0.568582 28.2203C1.6757 35.6989 7.00558 36.6193 8.29067 36.9329C9.57807 37.2488 13.9233 38 19.4566 38C24.9899 38 29.3351 37.2488 30.6225 36.9329C31.9099 36.6193 37.2398 35.6989 38.3446 28.2203C38.3446 28.2203 38.9132 25.0077 38.9132 19C38.9132 12.9923 38.3446 9.77974 38.3446 9.77974C37.2398 2.30112 31.9099 1.38293 30.6225 1.06709ZM31.2096 23.3924V26.5012V27.1126H30.5833H29.5709V30.6928V31.3042H28.9445H25.8058H25.1794V30.6928V27.1126H14.7577C11.1775 27.1126 8.26524 24.2723 8.26524 20.7777V7.59368V6.98231H8.89161H12.2338H12.8601V7.59368V20.4393C12.8601 21.8787 13.7823 22.7765 15.2639 22.781H25.1771V11.8214V11.2078H25.8035H28.9422H29.5686V11.8214V22.781H30.5809H31.2073V23.3924H31.2096Z" fill="black"/>
<path d="M63.8844 11.0498C61.2356 11.0498 58.7417 12.3673 57.274 14.5128C55.811 12.3673 53.3171 11.0498 50.666 11.0498C46.2861 11.0498 42.722 14.5286 42.7197 18.8037V26.844V27.1193H43.0017H45.1258H45.4078V26.844V18.8037C45.4078 15.9746 47.7676 13.6735 50.666 13.669C53.5551 13.6735 55.915 15.9769 55.9289 18.8037V26.844V27.1193H56.2108H58.3442H58.6262V26.844V18.8037C58.6308 15.9792 60.9883 13.6735 63.8867 13.669C66.7782 13.6735 69.138 15.9769 69.1496 18.8037V26.844V27.1193H69.4292H71.5464H71.8284V26.844V18.8037C71.8237 14.5286 68.2597 11.0498 63.8844 11.0498Z" fill="black"/>
<path d="M118.716 11.0498C116.065 11.0498 113.573 12.3673 112.105 14.5128C110.638 12.3673 108.148 11.0498 105.495 11.0498C101.115 11.0498 97.5535 14.5286 97.5488 18.8037V26.844V27.1193H97.8308H99.9549H100.239V26.844V18.8037C100.239 15.9746 102.597 13.6735 105.495 13.6713C108.384 13.6735 110.746 15.9769 110.76 18.8037V26.844V27.1193H111.04H113.176H113.455V26.844V18.8037C113.46 15.9746 115.82 13.6735 118.716 13.6713C121.607 13.6735 123.967 15.9769 123.979 18.8037V26.844V27.1193H124.261H126.378H126.66V26.844V18.8037C126.657 14.5286 123.096 11.0498 118.716 11.0498Z" fill="black"/>
<path d="M84.936 11.0498C80.5584 11.0498 76.9921 14.5286 76.9897 18.8037V19.3677C76.9897 23.6428 80.5538 27.1193 84.9314 27.1193C89.309 27.1193 92.8731 23.6428 92.8777 19.3677V18.8037C92.8777 14.5286 89.316 11.0498 84.936 11.0498ZM90.1873 19.3654C90.185 22.1944 87.8275 24.4933 84.9314 24.5001C82.0423 24.4933 79.687 22.1944 79.6755 19.3654V18.8014C79.6824 15.9769 82.04 13.6713 84.936 13.6668C87.8275 13.6713 90.1804 15.9746 90.1897 18.8014V19.3654H90.1873Z" fill="black"/>
<path d="M138.514 17.3012L137.96 17.2899H135.644C134.299 17.2899 133.205 16.753 133.205 15.44C133.205 14.136 134.299 13.5946 135.644 13.5901H140.964H141.246V13.3148V11.3228V11.0498H140.964H135.644C132.861 11.0498 130.598 12.726 130.598 15.4422C130.598 18.1562 132.861 19.8347 135.644 19.8369L137.5 19.8482H138.514C139.857 19.8505 140.948 20.9175 140.951 22.2283C140.951 23.5367 139.857 24.6038 138.514 24.6061H132.253H131.973V24.8858V26.8779V27.1531H132.253H138.514C141.293 27.1531 143.56 24.9445 143.56 22.2305C143.56 19.5098 141.293 17.3012 138.514 17.3012Z" fill="black"/>
<path d="M143.68 11.052C142.929 11.052 142.337 11.607 142.337 12.3176C142.337 13.0283 142.929 13.59 143.673 13.59C144.415 13.59 145 13.026 145 12.3176C145 11.607 144.415 11.052 143.68 11.052ZM143.68 13.326C143.102 13.326 142.668 12.8794 142.668 12.3154C142.668 11.7604 143.102 11.3047 143.664 11.3047C144.242 11.3047 144.667 11.7604 144.667 12.3221C144.67 12.8794 144.242 13.3351 143.68 13.326Z" fill="black"/>
<path d="M143.974 12.356V12.3402C144.124 12.2951 144.242 12.1936 144.242 12.0402C144.242 11.9161 144.186 11.8236 144.108 11.7694C144.02 11.7085 143.909 11.6702 143.664 11.6702C143.451 11.6702 143.285 11.6927 143.167 11.7085V12.9741H143.467V12.4733H143.608C143.775 12.4733 143.853 12.5342 143.877 12.6673C143.916 12.8207 143.939 12.929 143.981 12.9764H144.297C144.274 12.929 144.242 12.8613 144.202 12.6673C144.163 12.4936 144.098 12.3943 143.974 12.356ZM143.618 12.2635H143.477V11.9003C143.509 11.8935 143.565 11.8845 143.643 11.8845C143.833 11.8845 143.92 11.9612 143.92 12.0785C143.918 12.2094 143.784 12.2635 143.618 12.2635Z" fill="black"/>
</svg>
